<?xml version="1.0" standalone="no"?>
<!DOCTYPE svg PUBLIC "-//W3C//DTD SVG 20010904//EN"
 "http://www.w3.org/TR/2001/REC-SVG-20010904/DTD/svg10.dtd">
<svg version="1.0" xmlns="http://www.w3.org/2000/svg"
 width="536.000000pt" height="545.000000pt" viewBox="0 0 536.000000 545.000000"
 preserveAspectRatio="xMidYMid meet">

<g transform="translate(0.000000,545.000000) scale(0.100000,-0.100000)"
fill="#000000" stroke="none">
<path d="M2977 4775 c-58 -16 -117 -43 -117 -54 0 -4 12 -18 26 -32 15 -13 44
-50 64 -81 l38 -57 18 21 c15 17 16 20 3 16 -28 -10 -102 93 -93 129 6 22 54
46 126 63 26 6 28 8 8 8 -14 0 -47 -6 -73 -13z"/>
<path d="M3252 4625 c0 -16 2 -22 5 -12 2 9 2 23 0 30 -3 6 -5 -1 -5 -18z"/>
<path d="M3078 4449 c3 -111 8 -146 28 -203 14 -38 27 -73 30 -78 9 -14 41 20
53 55 l11 30 -22 -19 c-20 -18 -21 -18 -15 -1 4 11 3 16 -3 12 -6 -3 -10 -14
-10 -23 -1 -9 -12 3 -25 28 -21 39 -24 60 -25 150 -1 58 -7 123 -13 144 -10
33 -12 19 -9 -95z"/>
<path d="M2692 4425 c20 -22 50 -62 67 -89 36 -58 39 -56 12 5 -19 41 -49 76
-96 109 -11 8 -4 -4 17 -25z"/>
<path d="M3240 4398 c-6 -35 -19 -75 -27 -91 -8 -16 -12 -34 -10 -40 2 -7 11
4 19 23 16 39 42 160 35 166 -2 3 -10 -24 -17 -58z"/>
<path d="M2415 4291 c-11 -5 -29 -19 -40 -31 l-20 -23 23 12 c12 6 22 15 22
20 0 4 15 13 33 19 17 5 25 10 17 10 -8 1 -24 -3 -35 -7z"/>
<path d="M1436 4270 c14 -51 71 -146 82 -136 3 3 -2 14 -10 23 -9 10 -30 45
-48 78 -17 33 -28 49 -24 35z"/>
<path d="M2540 4283 c8 -3 22 -11 30 -17 13 -10 13 -9 1 7 -7 9 -21 17 -30 16
-13 0 -14 -1 -1 -6z"/>
<path d="M2321 4157 c-1 -42 26 -103 58 -129 18 -15 21 -16 21 -3 0 9 -6 18
-14 21 -18 7 -47 66 -57 114 l-7 35 -1 -38z"/>
<path d="M2830 4155 c0 -2 8 -19 18 -37 11 -18 34 -60 52 -93 19 -33 49 -82
67 -109 18 -26 33 -52 33 -55 0 -4 -34 -25 -75 -46 -41 -21 -73 -41 -70 -43 2
-2 37 12 76 32 71 35 102 41 63 11 -17 -13 -17 -14 -2 -15 9 0 24 10 32 22 15
22 16 22 16 2 0 -11 -5 -25 -11 -31 -7 -7 -6 -15 5 -26 18 -17 11 -47 -10 -47
-8 0 -14 -4 -14 -10 0 -16 26 -1 47 29 38 50 113 197 113 220 0 37 -18 60 -69
86 -27 13 -60 38 -75 55 -19 23 -26 27 -26 15 0 -14 -3 -15 -14 -6 -10 9 -15
8 -19 -3 -4 -10 1 -13 19 -11 13 1 24 -1 24 -5 0 -4 32 -31 70 -59 73 -53 78
-64 59 -120 -8 -22 -17 -31 -32 -31 -28 1 -77 44 -76 67 0 16 1 16 9 -2 6 -15
9 -8 9 28 1 45 2 48 24 42 14 -5 19 -4 12 3 -5 5 -21 12 -35 16 -14 3 -19 3
-12 0 6 -3 10 -10 6 -15 -7 -12 -64 -12 -64 0 0 5 8 8 18 7 9 0 17 5 17 13 0
15 -52 34 -72 26 -7 -2 -10 2 -7 9 3 9 -4 12 -26 11 -21 -1 -30 3 -30 13 0 8
-11 25 -25 38 -14 13 -25 21 -25 19z m230 -376 c0 -11 -4 -17 -10 -14 -5 3
-10 13 -10 21 0 8 5 14 10 14 6 0 10 -9 10 -21z"/>
<path d="M1702 4095 c0 -16 2 -22 5 -12 2 9 2 23 0 30 -3 6 -5 -1 -5 -18z"/>
<path d="M1570 4072 c0 -4 10 -13 23 -21 22 -14 22 -14 3 8 -20 22 -26 25 -26
13z"/>
<path d="M1676 3998 c3 -4 9 -8 15 -8 5 0 9 4 9 8 0 5 -7 9 -15 9 -8 0 -12 -4
-9 -9z"/>
<path d="M2449 3994 c18 -9 40 -13 49 -9 23 9 7 17 -40 20 l-43 3 34 -14z"/>
<path d="M2538 4003 c7 -3 16 -2 19 1 4 3 -2 6 -13 5 -11 0 -14 -3 -6 -6z"/>
<path d="M2160 3862 c6 -13 14 -21 18 -18 3 4 -2 14 -12 24 -18 16 -18 16 -6
-6z"/>
<path d="M2953 3785 c0 -8 4 -12 9 -9 5 3 6 10 3 15 -9 13 -12 11 -12 -6z"/>
<path d="M2800 3758 c-14 -6 -52 -19 -85 -29 -33 -10 -53 -18 -45 -18 23 -1
152 37 164 49 13 13 -1 12 -34 -2z"/>
<path d="M2628 3703 c7 -3 16 -2 19 1 4 3 -2 6 -13 5 -11 0 -14 -3 -6 -6z"/>
<path d="M2010 3661 c50 -45 171 -112 257 -142 71 -24 80 -18 16 11 -72 34
-127 63 -133 70 -3 3 -30 18 -60 32 -30 15 -71 37 -90 49 -32 19 -31 17 10
-20z"/>
<path d="M2568 3693 c6 -2 18 -2 25 0 6 3 1 5 -13 5 -14 0 -19 -2 -12 -5z"/>
<path d="M2936 3644 c-11 -8 -16 -14 -10 -14 13 0 39 18 34 24 -3 2 -14 -2
-24 -10z"/>
<path d="M2348 3493 c7 -3 16 -2 19 1 4 3 -2 6 -13 5 -11 0 -14 -3 -6 -6z"/>
<path d="M2428 3473 c6 -2 18 -2 25 0 6 3 1 5 -13 5 -14 0 -19 -2 -12 -5z"/>
<path d="M3820 2781 c0 -5 5 -13 10 -16 6 -3 10 -2 10 4 0 5 -4 13 -10 16 -5
3 -10 2 -10 -4z"/>
<path d="M3862 2710 c7 -10 14 -18 15 -16 6 6 -9 36 -18 36 -5 0 -4 -9 3 -20z"/>
<path d="M3021 2425 c1 -19 18 -51 18 -35 0 8 -4 22 -9 30 -5 8 -9 11 -9 5z"/>
<path d="M3040 2356 c0 -8 4 -17 9 -20 5 -4 7 3 4 14 -6 23 -13 26 -13 6z"/>
<path d="M2770 2340 c8 -5 20 -10 25 -10 6 0 3 5 -5 10 -8 5 -19 10 -25 10 -5
0 -3 -5 5 -10z"/>
<path d="M2850 2304 c60 -34 120 -74 148 -98 12 -11 22 -15 22 -10 -1 16 -103
90 -154 113 -65 28 -71 26 -16 -5z"/>
<path d="M3060 2279 c0 -9 3 -19 7 -23 4 -4 8 -24 8 -46 1 -27 9 -48 25 -65
13 -14 19 -25 13 -25 -17 0 -53 46 -53 68 0 26 -15 29 -24 5 -5 -11 5 -28 27
-52 19 -20 37 -43 41 -51 20 -44 56 -102 52 -85 -3 11 -10 42 -16 69 -6 27
-16 58 -22 70 -13 23 -15 28 -17 52 0 8 -5 13 -9 10 -4 -2 -8 11 -8 30 0 19
-5 39 -12 46 -9 9 -12 9 -12 -3z"/>
<path d="M3956 2164 c-4 -37 -4 -69 -1 -72 3 -3 5 9 5 26 0 17 4 33 8 36 5 3
7 18 4 35 -3 22 0 30 15 34 16 4 15 5 -3 6 -19 1 -22 -6 -28 -65z"/>
<path d="M4301 2225 c-2 -5 -3 -23 -2 -40 1 -50 -29 -235 -51 -310 -37 -131
-78 -250 -73 -212 4 23 2 37 -5 37 -6 0 -9 -3 -7 -7 3 -5 -15 -6 -39 -4 -24 1
-44 7 -44 12 0 5 -18 9 -40 9 -22 0 -40 -4 -40 -10 0 -5 -16 -10 -36 -10 -35
0 -64 18 -64 39 0 17 -17 13 -24 -5 -8 -22 -8 -22 12 -27 11 -3 7 -5 -10 -6
-26 -1 -26 0 -17 37 17 65 20 69 30 47 8 -16 8 -15 4 8 -7 33 4 79 16 71 5 -3
9 16 8 43 l0 48 -18 -60 c-10 -33 -41 -112 -70 -175 -109 -236 -246 -400 -440
-525 -95 -61 -271 -136 -421 -180 l-45 -14 50 -1 c28 -1 43 -4 35 -7 -8 -3
-24 -16 -35 -28 -17 -19 -38 -24 -137 -35 -65 -7 -118 -17 -118 -22 0 -4 -13
-8 -30 -8 -28 0 -30 -2 -30 -39 0 -22 -5 -42 -12 -44 -8 -3 -6 -6 5 -6 9 -1
17 -6 17 -12 0 -7 -12 -8 -32 -4 l-33 6 25 -20 25 -20 -40 4 c-33 4 -35 3 -13
-4 53 -18 240 -34 328 -28 182 12 551 153 766 293 105 68 221 182 304 299 35
50 74 101 87 115 12 13 25 36 28 50 3 14 21 51 39 81 74 123 168 516 153 639
-2 19 -5 31 -6 25z m-480 -598 c-10 -9 -11 -8 -5 6 3 10 9 15 12 12 3 -3 0
-11 -7 -18z m-24 -49 c-3 -7 -5 -2 -5 12 0 14 2 19 5 13 2 -7 2 -19 0 -25z
m343 4 c0 -15 -2 -15 -10 -2 -13 20 -13 33 0 25 6 -3 10 -14 10 -23z m-300 8
c0 -5 -4 -10 -10 -10 -5 0 -10 5 -10 10 0 6 5 10 10 10 6 0 10 -4 10 -10z
m270 -19 c0 -6 -4 -13 -10 -16 -5 -3 -10 1 -10 9 0 9 5 16 10 16 6 0 10 -4 10
-9z m-280 -11 c0 -5 -5 -10 -11 -10 -5 0 -7 5 -4 10 3 6 8 10 11 10 2 0 4 -4
4 -10z m293 -15 c-3 -9 -8 -14 -10 -11 -3 3 -2 9 2 15 9 16 15 13 8 -4z m-866
-471 c-3 -3 -12 -4 -19 -1 -8 3 -5 6 6 6 11 1 17 -2 13 -5z m-52 -14 c-3 -5
-12 -10 -18 -10 -7 0 -6 4 3 10 19 12 23 12 15 0z"/>
<path d="M3939 2055 c-1 -14 -2 -30 -3 -37 -1 -6 5 -12 12 -14 7 -1 8 0 3 2
-5 3 -7 21 -4 40 3 19 3 34 -1 34 -3 0 -7 -11 -7 -25z"/>
<path d="M2918 2045 c6 -11 23 -31 38 -45 22 -20 25 -21 17 -5 -6 11 -23 31
-38 45 -23 20 -26 21 -17 5z"/>
<path d="M3921 1964 c0 -11 3 -14 6 -6 3 7 2 16 -1 19 -3 4 -6 -2 -5 -13z"/>
<path d="M1925 1949 c-4 -6 -5 -12 -2 -15 2 -3 7 2 10 11 7 17 1 20 -8 4z"/>
<path d="M1962 1939 c-1 -9 -5 -32 -8 -50 -4 -28 -3 -31 6 -16 6 9 9 32 7 50
-2 17 -5 25 -5 16z"/>
<path d="M1790 1882 c0 -5 7 -13 16 -16 10 -4 14 -1 12 6 -5 15 -28 23 -28 10z"/>
<path d="M1926 1871 c-4 -7 -5 -15 -2 -18 9 -9 19 4 14 18 -4 11 -6 11 -12 0z"/>
<path d="M1426 1535 c4 -370 10 -455 30 -455 7 0 39 12 72 26 54 23 60 29 66
62 7 47 8 432 0 432 -3 0 -12 -7 -21 -15 -14 -14 -17 -14 -30 5 -11 15 -25 20
-58 20 -54 0 -54 0 -59 150 -1 58 -1 -43 0 -225z"/>
<path d="M3057 1823 c9 -27 17 -66 18 -88 1 -23 10 -55 19 -72 14 -28 14 -38
3 -82 l-13 -51 -22 22 -22 22 0 -21 c0 -12 5 -23 12 -25 9 -3 9 -6 0 -12 -7
-4 -12 -2 -12 3 0 6 -9 11 -20 11 -17 0 -20 -7 -20 -40 0 -33 -3 -40 -20 -40
-17 0 -20 -7 -20 -40 l0 -40 -40 0 -40 0 0 -40 c0 -22 4 -40 9 -40 6 0 11 -19
13 -42 3 -41 5 -43 35 -44 44 0 55 -14 12 -14 -19 0 -39 -4 -44 -9 -6 -5 -21
-11 -35 -14 -14 -2 2 -3 35 0 33 2 99 18 147 36 84 30 88 33 94 66 16 83 -16
382 -44 415 -10 11 -11 16 -4 12 19 -11 6 54 -24 122 -29 65 -38 68 -17 5z"/>
<path d="M1611 1834 c0 -11 3 -14 6 -6 3 7 2 16 -1 19 -3 4 -6 -2 -5 -13z"/>
<path d="M1770 1705 c-13 -130 -19 -529 -9 -540 2 -2 48 -6 102 -9 90 -6 97
-5 97 12 0 10 -5 23 -12 30 -9 9 -7 12 9 12 11 0 26 7 33 15 7 8 16 12 22 9 5
-3 6 6 2 23 -5 25 -3 24 21 -12 15 -22 24 -31 20 -20 -59 177 -86 269 -94 328
-13 88 -17 244 -7 275 5 13 3 22 -3 22 -6 0 -12 -10 -12 -22 -1 -13 -3 -16 -5
-8 -3 11 -16 14 -49 12 -41 -4 -45 -7 -46 -31 -1 -22 -3 -21 -12 12 -15 54
-27 46 -29 -20 l-1 -58 -6 60 c-6 55 -7 47 -21 -90z m47 73 c-3 -8 -6 -5 -6 6
-1 11 2 17 5 13 3 -3 4 -12 1 -19z m110 -120 c-3 -7 -5 -2 -5 12 0 14 2 19 5
13 2 -7 2 -19 0 -25z m-10 -454 c-3 -3 -12 -4 -19 -1 -8 3 -5 6 6 6 11 1 17
-2 13 -5z"/>
<path d="M4202 1830 c0 -14 2 -19 5 -12 2 6 2 18 0 25 -3 6 -5 1 -5 -13z"/>
<path d="M3911 1774 c0 -11 3 -14 6 -6 3 7 2 16 -1 19 -3 4 -6 -2 -5 -13z"/>
<path d="M4164 1735 c-1 -14 2 -22 7 -19 5 3 9 0 9 -7 0 -7 2 -10 5 -7 7 7 -5
58 -14 58 -3 0 -7 -11 -7 -25z"/>
<path d="M4190 1749 c0 -5 5 -7 10 -4 6 3 10 8 10 11 0 2 -4 4 -10 4 -5 0 -10
-5 -10 -11z"/>
<path d="M1603 1650 c0 -25 2 -35 4 -22 2 12 2 32 0 45 -2 12 -4 2 -4 -23z"/>
<path d="M3066 1625 c4 -8 10 -15 15 -15 5 0 9 7 9 15 0 8 -7 15 -15 15 -9 0
-12 -6 -9 -15z"/>
<path d="M2798 1153 c7 -3 16 -2 19 1 4 3 -2 6 -13 5 -11 0 -14 -3 -6 -6z"/>
<path d="M1674 979 c-88 -10 -227 -73 -298 -136 -62 -54 -99 -185 -57 -201 26
-9 272 9 265 20 -3 4 0 8 5 8 6 0 11 7 11 15 0 11 11 15 40 15 36 0 40 3 40
25 0 25 1 25 80 25 44 0 80 4 80 9 0 9 -94 21 -179 21 -31 1 -69 7 -86 15
l-30 13 28 1 c20 1 27 6 27 21 0 22 0 22 -82 22 -45 1 -56 4 -48 13 6 7 20 10
32 7 18 -4 20 -2 15 18 -4 17 -3 20 6 11 6 -6 16 -11 22 -11 5 0 3 5 -5 10
-11 7 -12 12 -3 21 16 16 140 49 185 49 21 0 38 5 38 10 0 6 -3 9 -7 9 -5 -1
-40 -5 -79 -10z m-234 -129 c0 -5 -2 -10 -4 -10 -3 0 -8 5 -11 10 -3 6 -1 10
4 10 6 0 11 -4 11 -10z"/>
<path d="M2888 983 c6 -2 18 -2 25 0 6 3 1 5 -13 5 -14 0 -19 -2 -12 -5z"/>
<path d="M1803 973 c9 -2 23 -2 30 0 6 3 -1 5 -18 5 -16 0 -22 -2 -12 -5z"/>
<path d="M1593 926 c0 -11 5 -13 19 -5 10 5 18 12 18 14 0 3 -8 5 -18 5 -10 0
-19 -7 -19 -14z"/>
<path d="M1557 909 c7 -7 15 -10 18 -7 3 3 -2 9 -12 12 -14 6 -15 5 -6 -5z"/>
<path d="M1638 903 c7 -3 16 -2 19 1 4 3 -2 6 -13 5 -11 0 -14 -3 -6 -6z"/>
<path d="M1613 850 c0 -25 2 -35 4 -22 2 12 2 32 0 45 -2 12 -4 2 -4 -23z"/>
<path d="M2231 781 c-19 -12 -3 -33 20 -26 14 5 19 2 19 -10 0 -13 -6 -16 -27
-11 -16 3 -22 3 -15 0 6 -3 12 -23 12 -45 l0 -39 98 0 c92 0 166 10 180 25 10
9 -21 26 -37 20 -8 -3 -23 -2 -35 1 -21 7 -21 7 2 15 12 5 28 6 36 3 11 -4 13
0 9 14 -5 23 -21 28 -143 48 -100 16 -101 16 -119 5z m79 -31 c0 -5 -2 -10 -4
-10 -3 0 -8 5 -11 10 -3 6 -1 10 4 10 6 0 11 -4 11 -10z m120 -4 c0 -2 -7 -6
-15 -10 -8 -3 -15 -1 -15 4 0 6 7 10 15 10 8 0 15 -2 15 -4z"/>
<path d="M2530 776 c0 -2 7 -7 16 -10 8 -3 12 -2 9 4 -6 10 -25 14 -25 6z"/>
<path d="M3509 771 c-127 -7 -164 -21 -175 -68 -13 -52 -6 -53 417 -53 338 0
388 2 399 16 20 23 1 64 -39 88 -31 18 -55 20 -260 22 -124 1 -278 -1 -342 -5z"/>
</g>
</svg>
